#!OML:ASF F:\VICON\USERDATA\INSTALL\rory3\rory3.ASF
:FULLY-SPECIFIED
:DEGREES
456
root 0.211594 15.9889 -28.4571 -156.434 -12.1309 -176.106
lowerback -8.68593 3.66382 8.67922
upperback -8.90544 3.30139 2.44524
thorax -4.11224 0.739999 -2.062
lowerneck -12.356 -1.06196 -2.8885
upperneck 35.036 -4.17658 0.262293
head 14.0712 -3.25012 -0.300534
rclavicle 7.70291e-015 7.95139e-015
rhumerus -22.0882 -68.1695 -20.1847
rradius 13.3273
rwrist 36.4051
rhand 2.95912 12.4057
rfingers 7.12502
rthumb 28.4215 -15.456
lclavicle 7.70291e-015 7.95139e-015
lhumerus -13.1356 -8.95817 80.4231
lradius 12.7853
lwrist -39.5043
lhand 20.3966 17.1699
lfingers 7.12502
lthumb 44.9043 40.7071
rfemur -198.851 -187.335 -142.561
rtibia 28.7058
rfoot -32.5932 -29.5881
rtoes 11.1026
lfemur -71.2408 8.58672 -38.805
ltibia 44.4781
lfoot -1.69197 26.9704
ltoes 6.46985
457
root 0.200105 15.9416 -28.5619 -156.258 -11.3301 -175.962
lowerback -11.352 3.46774 8.28297
upperback -7.32374 2.7888 2.73277
thorax -1.04772 0.72042 -1.48067
lowerneck -13.3147 -1.26163 -3.4001
upperneck 33.9702 -4.06518 0.649632
head 13.8274 -3.09149 -0.0136741
rclavicle -2.28602e-014 3.02153e-014
rhumerus -20.8621 -74.0815 -20.3923
rradius 12.8129
rwrist 41.5415
rhand 3.23627 12.8337
rfingers 7.12502
rthumb 28.6863 -14.9836
lclavicle -2.28602e-014 3.02153e-014
lhumerus -9.47788 -6.19335 78.6106
lradius 12.4598
lwrist -42.7617
lhand 21.1364 17.3504
lfingers 7.12502
lthumb 45.5922 40.6128
rfemur -198.603 -187.421 -142.55
rtibia 29.0383
rfoot -32.796 -29.0786
rtoes 9.67138
lfemur -71.4225 8.587 -38.6979
ltibia 44.5912
lfoot -1.78502 27.8481
ltoes 9.56487
458
root 0.168888 15.9144 -28.6882 -156.138 -11.6203 -175.531
lowerback -11.7429 3.45462 9.04429
upperback -7.93075 2.56793 2.67395
thorax -1.47012 0.495741 -1.97606
lowerneck -12.6461 -0.872723 -3.34747
upperneck 34.9314 -4.00284 0.990032
head 14.114 -3.1301 0.0964778
rclavicle 2.08724e-015 7.95139e-016
rhumerus -26.6921 -75.1763 -13.9501
rradius 12.6406
rwrist 44.6903
rhand 3.59108 13.0818
rfingers 7.12502
rthumb 29.0252 -14.6776
lclavicle 2.08724e-015 7.95139e-016
lhumerus -9.04868 -6.34884 77.3176
lradius 12.4613
lwrist -44.6152
lhand 21.2615 17.5782
lfingers 7.12502
lthumb 45.7084 40.7932
rfemur -198.418 -186.064 -141.991
rtibia 29.2664
rfoot -32.6375 -28.0718
rtoes 10.0955
lfemur -71.4201 8.00257 -38.0012
ltibia 44.7985
lfoot -0.953784 27.8967
ltoes 9.30403
459
root 0.204517 15.874 -28.8329 -156.055 -10.047 -175.949
lowerback -12.3612 3.53576 7.43714
upperback -7.91361 2.75861 2.58145
thorax -1.15145 0.65768 -1.14383
lowerneck -12.558 -0.738074 -3.48335
upperneck 35.4784 -4.06447 1.28702
head 14.3571 -3.19207 0.211248
rclavicle 4.32357e-015 -3.26007e-014
rhumerus -35.457 -78.3382 -4.22394
rradius 12.3503
rwrist 49.385
rhand 3.89547 13.0083
rfingers 7.12502
rthumb 29.3159 -14.7007
lclavicle 4.32357e-015 -3.26007e-014
lhumerus -7.71765 -6.36918 76.0126
lradius 12.4704
lwrist -46.5598
lhand 21.3042 17.7705
lfingers 7.12502
lthumb 45.7481 40.9692
rfemur -197.828 -188.814 -142.79
rtibia 29.377
rfoot -33.7084 -28.7883
rtoes 14.7637
lfemur -71.1688 8.38731 -38.0503
ltibia 44.929
lfoot -3.05874 28.5578
ltoes 14.8749
460
root 0.203906 15.8319 -28.9389 -155.929 -9.22752 -176.106
lowerback -12.62 3.40589 6.75007
upperback -8.1513 2.59121 2.61405
thorax -1.30139 0.567827 -0.742879
lowerneck -12.1926 -0.411007 -3.09789
upperneck 35.9138 -3.82042 1.08574
head 14.4535 -3.13053 0.0855689
rclavicle -4.60435e-014 -1.43125e-014
rhumerus -39.0761 -79.05 0.158257
rradius 12.3079
rwrist 51.85
rhand 4.11012 12.1709
rfingers 7.12502
rthumb 29.5208 -15.5021
lclavicle -4.60435e-014 -1.43125e-014
lhumerus -6.73479 -5.9731 74.609
lradius 12.5226
lwrist -48.5537
lhand 21.15 17.6276
lfingers 7.12502
lthumb 45.6049 40.8849
rfemur -197.121 -189.179 -143.033
rtibia 28.9751
rfoot -33.6222 -28.6995
rtoes 17.4978
lfemur -71.1723 8.43026 -38.1958
ltibia 45.4043
lfoot -5.17507 29.0615
ltoes 18.4781
461
root 0.201456 15.7927 -29.0528 -155.82 -8.54974 -176.225
lowerback -13.0533 3.38073 6.34446
upperback -8.35551 2.52283 2.47269
thorax -1.2974 0.520853 -0.66107
lowerneck -11.461 -0.0143546 -2.34808
upperneck 36.0512 -3.43199 0.645377
head 14.3145 -2.97899 -0.16558
rclavicle 9.39258e-015 2.3059e-014
rhumerus -42.5807 -79.0843 4.29521
rradius 12.2986
rwrist 53.2793
rhand 4.02723 11.4019
rfingers 7.12502
rthumb 29.4417 -16.2851
lclavicle 9.39258e-015 2.3059e-014
lhumerus -5.54193 -6.87757 73.1648
lradius 12.7376
lwrist -49.2822
lhand 20.7946 17.7003
lfingers 7.12502
lthumb 45.2745 41.0909
rfemur -196.577 -189.461 -143.213
rtibia 28.9147
rfoot -35.4144 -28.5131
rtoes 11.9946
lfemur -71.1334 8.71114 -38.6555
ltibia 45.6699
lfoot -5.77585 29.407
ltoes 17.0431
462
root 0.184441 15.7313 -29.2838 -155.252 -8.80374 -174.833
lowerback -15.0086 3.71314 7.59783
upperback -9.19989 2.35182 2.66883
thorax -1.13316 0.239845 -1.11296
lowerneck -9.81539 0.406356 -1.93632
upperneck 36.4718 -3.34924 0.715182
head 14.1292 -3.02236 -0.204105
rclavicle 1.10015e-014 -3.49861e-014
rhumerus -25.5774 -65.8621 -13.3479
rradius 13.0698
rwrist 41.068
rhand 3.99572 9.38546
rfingers 7.12502
rthumb 29.4116 -18.3068
lclavicle 1.10015e-014 -3.49861e-014
lhumerus -5.64878 -8.81339 71.7515
lradius 13.1727
lwrist -49.5479
lhand 20.8232 17.9284
lfingers 7.12502
lthumb 45.3011 41.3083
rfemur -196.012 -188.888 -141.69
rtibia 28.3788
rfoot -34.4365 -27.9333
rtoes 14.9865
lfemur -71.9916 9.01709 -37.4691
ltibia 46.5126
lfoot -7.47424 28.734
ltoes 21.3443
463
root 0.167689 15.6995 -29.2977 -155.762 -8.15553 -175.676
lowerback -15.3945 3.18567 6.79602
upperback -7.72292 1.93369 2.65918
thorax 0.589871 0.269305 -0.731439
lowerneck -11.1724 0.456786 -1.74884
upperneck 35.7731 -2.7627 0.361129
head 14.0925 -2.65042 -0.274733
rclavicle 2.56929e-014 6.12257e-014
rhumerus -30.8916 -75.1047 -6.28217
rradius 12.4963
rwrist 48.9726
rhand 3.76356 9.54566
rfingers 7.12502
rthumb 29.1899 -18.1853
lclavicle 2.56929e-014 6.12257e-014
lhumerus -1.6819 -9.78254 69.9956
lradius 13.3812
lwrist -48.5181
lhand 21.1146 18.3419
lfingers 7.12502
lthumb 45.5719 41.6126
rfemur -195.069 -188.931 -142.624
rtibia 28.1571
rfoot -35.6115 -28.1075
rtoes 8.26625
lfemur -71.0682 8.65258 -37.9932
ltibia 46.7582
lfoot -9.32177 29.7207
ltoes 22.2311
464
root 0.128688 15.6625 -29.4517 -155.468 -8.2519 -175.128
lowerback -16.1057 3.39925 7.83432
upperback -8.33368 1.86118 2.55795
thorax 0.340779 0.105446 -1.41122
lowerneck -10.4373 0.732203 -1.77128
upperneck 36.2802 -2.68719 0.529346
head 14.1618 -2.69428 -0.209614
rclavicle -5.60945e-014 2.14687e-014
rhumerus -20.8626 -58.9612 -17.2386
rradius 14.0114
rwrist 33.5515
rhand 4.06438 7.1266
rfingers 7.12502
rthumb 29.4772 -20.5541
lclavicle -5.60945e-014 2.14687e-014
lhumerus -0.976358 -13.1206 68.3577
lradius 13.9572
lwrist -46.4271
lhand 21.0105 18.7409
lfingers 7.12502
lthumb 45.4753 42.0508
rfemur -194.59 -187.753 -142.161
rtibia 27.7648
rfoot -33.7854 -27.225
rtoes 13.2826
lfemur -71.1752 8.49231 -37.4959
ltibia 47.3988
lfoot -11.7944 29.5007
ltoes 22.7317
465
root 0.148491 15.646 -29.5738 -155.377 -6.80671 -176.207
lowerback -16.0362 3.35335 6.11123
upperback -8.6707 2.04902 2.20893
thorax -0.0752783 0.216089 -0.791531
lowerneck -9.90466 0.91509 -2.10088
upperneck 36.6378 -2.66618 0.855501
head 14.2158 -2.76113 -0.0294911
rclavicle -1.85289e-014 -1.59028e-014
rhumerus -21.5936 -56.9991 -15.8944
rradius 14.0692
rwrist 32.6772
rhand 3.91044 7.0276
rfingers 7.12502
rthumb 29.3302 -20.6789
lclavicle -1.85289e-014 -1.59028e-014
lhumerus 0.228876 -13.7892 66.8749
lradius 14.3376
lwrist -46.7772
lhand 20.5857 18.5816
lfingers 7.12502
lthumb 45.0803 42.0495
rfemur -194.092 -189.55 -143.57
rtibia 28.0386
rfoot -34.782 -27.7466
rtoes 12.4118
lfemur -70.7633 9.54171 -39.1429
ltibia 47.481
lfoot -13.6633 29.1743
ltoes 23.7591
